<svg width="703" height="769" viewBox="0 0 703 769" fill="none" xmlns="http://www.w3.org/2000/svg">
<path d="M21.9625 759.964H24.0825V768.404H19.8525V764.184H5.04254V768.404H0.8125V759.964H2.9325V749.064C2.9325 744.854 5.05253 742.734 9.28253 742.734H15.6325C19.8625 742.734 21.9825 744.844 21.9825 749.064V759.964H21.9625ZM17.7325 759.964V749.064C17.7325 747.654 17.0225 746.954 15.6125 746.954H9.26251C7.85251 746.954 7.14252 747.654 7.14252 749.064V759.964H17.7325ZM68.5125 743.084H57.9325C54.9425 743.084 52.8325 745.194 51.5825 749.414C51.3725 750.824 49.9625 755.744 47.3525 764.184H51.6525L55.8125 749.414C56.1825 748.004 56.8925 747.304 57.9325 747.304H64.2725V764.174H68.5025V743.084H68.5125ZM91.7825 749.414V751.524C91.7825 755.734 93.8925 757.854 98.1325 757.854L91.7825 764.184H97.7725L104.122 757.854H108.703V764.184H112.932V743.084H98.1225C93.9025 743.084 91.7825 745.194 91.7825 749.414ZM96.0125 749.414C96.0125 748.004 96.7125 747.304 98.1325 747.304H108.713V753.634H98.1325C96.7225 753.634 96.0125 752.934 96.0125 751.524V749.414ZM205.403 753.594C206.293 752.724 206.743 751.324 206.743 749.374C206.723 745.174 204.603 743.084 200.393 743.084H185.583V764.174H200.393C204.623 764.174 206.743 762.064 206.743 757.844C206.743 755.934 206.293 754.514 205.403 753.594ZM200.393 751.524H189.812V747.304H200.393C201.803 747.304 202.513 748.004 202.513 749.414C202.513 750.824 201.803 751.524 200.393 751.524ZM200.393 759.964H189.812V755.744H200.393C201.803 755.744 202.513 756.454 202.513 757.854C202.513 759.264 201.803 759.964 200.393 759.964ZM251.173 764.184H236.363C232.133 764.184 230.013 762.074 230.013 757.854V749.414C230.013 745.194 232.133 743.084 236.363 743.084H251.173V747.304H236.363C234.953 747.304 234.253 748.004 234.253 749.414V757.854C234.253 759.264 234.953 759.964 236.363 759.964H251.173V764.184ZM295.603 747.304H278.673V751.524H291.363V755.734H278.673V759.954H295.603V764.174H274.443V743.084H295.603V747.304ZM318.872 764.184L326.812 753.634L318.872 743.084H324.163L329.453 750.114L334.743 743.084H340.033L332.103 753.634L340.033 764.184H334.743L329.453 757.154L324.163 764.184H318.872ZM432.773 764.184H428.542V755.744H415.853V764.184H411.622V743.084H415.853V751.524H428.542V743.084H432.773V764.184ZM477.203 764.184H472.973V759.964H460.282V764.184H456.052V749.064C456.052 744.854 458.172 742.734 462.402 742.734H470.863C475.093 742.734 477.213 744.844 477.213 749.064V764.184H477.203ZM472.973 755.744V749.064C472.973 747.654 472.263 746.954 470.853 746.954H462.393C460.983 746.954 460.282 747.654 460.282 749.064V755.744H472.973ZM521.633 749.414V751.524C521.633 755.734 519.512 757.854 515.282 757.854H504.703V764.184H500.473V743.084H515.282C519.522 743.084 521.633 745.194 521.633 749.414ZM517.402 749.414C517.402 748.004 516.702 747.304 515.282 747.304H504.703V753.634H515.282C516.692 753.634 517.402 752.934 517.402 751.524V749.414ZM566.062 758.204C566.062 762.414 563.943 764.534 559.713 764.534H551.253C547.023 764.534 544.902 762.424 544.902 758.204V749.054C544.902 744.844 547.023 742.724 551.253 742.724H559.713C563.943 742.724 566.062 744.834 566.062 749.054V758.204ZM561.833 758.204V749.054C561.833 747.644 561.133 746.944 559.713 746.944H551.253C549.843 746.944 549.133 747.644 549.133 749.054V758.204C549.133 759.604 549.843 760.314 551.253 760.314H559.713C561.133 760.314 561.833 759.604 561.833 758.204ZM610.493 759.964H612.613V768.404H608.383V764.184H593.573V768.404H589.343V759.964H591.463V749.064C591.463 744.854 593.572 742.734 597.802 742.734H604.152C608.382 742.734 610.493 744.844 610.493 749.064V759.964ZM606.263 759.964V749.064C606.263 747.654 605.553 746.954 604.143 746.954H597.792C596.382 746.954 595.672 747.654 595.672 749.064V759.964H606.263ZM657.042 758.204C657.042 762.414 654.923 764.534 650.693 764.534H642.233C638.003 764.534 635.883 762.424 635.883 758.204V749.054C635.883 744.844 638.003 742.724 642.233 742.724H650.693C654.923 742.724 657.042 744.834 657.042 749.054V758.204ZM652.812 758.204V749.054C652.812 747.644 652.103 746.944 650.693 746.944H642.233C640.823 746.944 640.113 747.644 640.113 749.054V758.204C640.113 759.604 640.813 760.314 642.233 760.314H650.693C652.103 760.314 652.812 759.604 652.812 758.204ZM700.133 753.594C701.023 752.724 701.473 751.324 701.473 749.374C701.453 745.174 699.333 743.084 695.123 743.084H680.312V764.174H695.123C699.353 764.174 701.473 762.064 701.473 757.844C701.473 755.934 701.023 754.514 700.133 753.594ZM695.123 751.524H684.542V747.304H695.123C696.533 747.304 697.243 748.004 697.243 749.414C697.243 750.824 696.533 751.524 695.123 751.524ZM695.123 759.964H684.542V755.744H695.123C696.533 755.744 697.243 756.454 697.243 757.854C697.243 759.264 696.533 759.964 695.123 759.964Z" fill="white"/>
<path d="M74.5916 702.714H22.4515C7.55154 702.714 0.101562 695.264 0.101562 680.364V650.564C0.101562 635.674 7.55154 628.224 22.4515 628.224H74.5916V643.114H22.4515C17.4815 643.114 15.0015 645.594 15.0015 650.564V680.364C15.0015 685.334 17.4815 687.814 22.4515 687.814H74.5916V702.714ZM123.012 702.714V661.744H109.362C105.642 661.744 103.362 664.024 102.532 668.574L95.7015 702.714H82.4116L88.8715 668.574C90.6915 654.914 97.5216 648.084 109.352 648.084H136.672V702.714H123.012ZM198.752 683.474C198.752 697.134 191.922 703.964 178.262 703.964H164.602C150.942 703.964 144.122 697.134 144.122 683.474V667.334C144.122 653.674 150.952 646.844 164.602 646.844H178.262C191.922 646.844 198.752 653.674 198.752 667.334V683.474ZM185.092 683.474V667.334C185.092 662.774 182.812 660.504 178.262 660.504H164.602C160.052 660.504 157.772 662.784 157.772 667.334V683.474C157.772 688.034 160.052 690.304 164.602 690.304H178.262C182.812 690.294 185.092 688.024 185.092 683.474ZM256.102 675.274C259.252 672.214 260.822 668.904 260.822 665.344C260.742 653.844 255.032 648.084 243.692 648.084H206.202V702.714H243.692C255.112 702.714 260.822 697.134 260.822 685.954C260.822 682.064 259.252 678.504 256.102 675.274ZM243.692 668.574H219.852V661.744H243.692C246.012 661.744 247.172 662.984 247.172 665.474C247.162 667.544 246.012 668.574 243.692 668.574ZM243.692 689.054H219.852V682.234H243.692C246.012 682.234 247.172 683.474 247.172 685.964C247.162 688.024 246.012 689.054 243.692 689.054ZM322.902 683.474C322.902 697.134 316.072 703.964 302.412 703.964H288.762C275.102 703.964 268.282 697.134 268.282 683.474V667.334C268.282 653.674 275.112 646.844 288.762 646.844H302.422C316.082 646.844 322.912 653.674 322.912 667.334V683.474H322.902ZM309.242 683.474V667.334C309.242 662.774 306.962 660.504 302.412 660.504H288.762C284.212 660.504 281.932 662.784 281.932 667.334V683.474C281.932 688.034 284.212 690.304 288.762 690.304H302.422C306.962 690.294 309.242 688.024 309.242 683.474Z" fill="white"/>
<path fill-rule="evenodd" clip-rule="evenodd" d="M482.18 443.604C492.77 409.304 554.79 377.244 600.13 369.644C591.28 389.794 571.03 414.644 558.03 426.064C541.12 440.914 515.51 451.324 482.18 443.604Z" fill="white"/>
<path fill-rule="evenodd" clip-rule="evenodd" d="M274.703 456.894C227.223 465.494 194.643 443.134 163.613 419.574C214.183 411.834 262.503 414.484 274.703 456.894Z" fill="white"/>
<path fill-rule="evenodd" clip-rule="evenodd" d="M377.53 354.624C341.3 320.584 374.77 228.834 398.43 199.314C408.17 255.514 425.4 317.304 377.53 354.624Z" fill="white"/>
<path fill-rule="evenodd" clip-rule="evenodd" d="M473.48 367.314C479.75 309.114 529.07 285.104 580.33 249.924C579.9 284.864 561.76 339.094 519.95 358.754C510.87 363.014 487.93 371.614 473.48 367.314Z" fill="white"/>
<path fill-rule="evenodd" clip-rule="evenodd" d="M271.353 391.544C270.523 391.724 269.803 391.454 268.853 392.024C267.913 392.584 266.933 392.384 266.383 392.414C263.603 392.564 262.533 392.654 259.323 392.474C254.593 392.204 250.733 391.534 245.893 390.424C176.703 374.614 170.113 313.204 153.633 264.114C203.363 287.684 251.373 326.844 267.623 372.854C270.763 381.734 272.413 382.894 271.353 391.544Z" fill="white"/>
<path fill-rule="evenodd" clip-rule="evenodd" d="M410.231 405.804C402.781 386.474 425.151 339.914 455.391 321.704C458.971 341.574 459.631 398.594 410.231 405.804Z" fill="white"/>
<path fill-rule="evenodd" clip-rule="evenodd" d="M597.462 331.944C588.002 304.544 600.192 284.184 620.142 267.944C638.452 253.044 669.102 235.824 698.222 226.224C691.462 256.644 647.682 322.144 597.462 331.944Z" fill="white"/>
<path fill-rule="evenodd" clip-rule="evenodd" d="M435.411 199.784C413.271 178.034 419.761 139.534 434.651 112.564C448.691 87.1336 470.281 66.4336 494.321 49.4136C493.951 92.7336 487.591 137.194 462.631 172.884C454.361 184.714 446.761 195.174 435.411 199.784Z" fill="white"/>
<path fill-rule="evenodd" clip-rule="evenodd" d="M254.322 278.494C230.392 274.434 211.502 265.064 200.412 247.224C184.212 221.164 183.682 185.014 178.672 155.094C211.472 173.644 264.062 238.144 254.322 278.494Z" fill="white"/>
<path fill-rule="evenodd" clip-rule="evenodd" d="M116.091 296.074C61.4311 308.234 42.5311 235.574 30.3711 201.664C53.1711 213.814 74.4011 228.334 90.8511 245.924C104.691 260.734 117.271 283.034 116.091 296.074Z" fill="white"/>
<path fill-rule="evenodd" clip-rule="evenodd" d="M342.373 258.574C269.443 234.644 302.993 153.944 312.273 107.324C341.603 127.234 372.063 227.554 342.373 258.574Z" fill="white"/>
<path fill-rule="evenodd" clip-rule="evenodd" d="M154.411 218.184C101.591 195.074 96.6908 169.404 72.3008 121.114C119.831 133.324 166.901 168.434 154.411 218.184Z" fill="white"/>
<path fill-rule="evenodd" clip-rule="evenodd" d="M539.082 232.114C555.552 181.584 593.432 169.864 639.492 145.414C626.152 191.294 598.082 238.254 539.082 232.114Z" fill="white"/>
<path fill-rule="evenodd" clip-rule="evenodd" d="M382.831 144.374C359.711 130.034 347.831 109.264 353.311 77.5436C358.091 49.8636 372.791 18.9436 393.881 0.443604C417.891 32.5936 418.251 110.974 382.831 144.374Z" fill="white"/>
<path fill-rule="evenodd" clip-rule="evenodd" d="M276.523 182.004C213.943 162.294 200.343 109.444 209.893 46.3936C233.013 62.4636 244.023 83.3536 257.183 103.574C271.543 125.624 279.923 148.404 276.523 182.004Z" fill="white"/>
<path fill-rule="evenodd" clip-rule="evenodd" d="M511.93 166.094C488.37 116.734 558.81 78.5136 586.83 70.0736C572.48 117.644 550.32 151.734 511.93 166.094Z" fill="white"/>
<path fill-rule="evenodd" clip-rule="evenodd" d="M341.863 394.054C303.993 387.354 291.523 322.604 282.223 292.704C322.033 300.514 355.913 351.174 341.863 394.054Z" fill="white"/>
<path fill-rule="evenodd" clip-rule="evenodd" d="M408.41 604.644C416.93 518.924 419.76 437.524 362.98 411.434C405.46 449.364 344.51 604.924 349.14 604.914L408.41 604.644Z" fill="white"/>
<path fill-rule="evenodd" clip-rule="evenodd" d="M469.16 422.554C426.57 471.494 363.3 461.094 308.57 449.984C388.36 493.764 458 463.924 469.16 422.554Z" fill="white"/>
<path fill-rule="evenodd" clip-rule="evenodd" d="M448.833 288.344C441.713 261.724 450.753 243.184 465.593 229.054C479.203 216.084 502.003 201.704 523.693 194.454C518.723 222.894 486.243 282.264 448.833 288.344Z" fill="white"/>
<path d="M353.863 702.714L381.793 665.474L353.863 628.234H372.483L394.833 658.034H398.563V628.234H413.463V658.034H417.183L439.533 628.234H458.153L430.223 665.474L458.153 702.714H439.533L417.183 672.914H413.463V702.714H398.563V672.914H394.833L372.483 702.714H353.863ZM516.503 702.714H502.843V696.884C495.803 701.604 488.973 703.964 482.353 703.964C468.693 703.964 461.863 697.134 461.863 683.474V648.084H475.523V683.474C475.523 687.944 477.803 690.224 482.353 690.304C491.453 689.144 498.283 684.804 502.843 677.274V648.084H516.503V702.714ZM561.443 668.574H537.603V682.224H561.443C563.763 682.224 564.923 683.464 564.923 685.954C564.923 688.024 563.763 689.054 561.443 689.054H523.953V702.714H561.443C572.863 702.714 578.573 697.134 578.573 685.954C578.573 682.064 577.003 678.504 573.853 675.274C577.003 672.214 578.573 668.904 578.573 665.344C578.483 653.844 572.773 648.084 561.443 648.084H523.953V661.744H561.443C563.763 661.744 564.923 662.984 564.923 665.474C564.923 667.544 563.763 668.574 561.443 668.574ZM640.653 702.714H627.003V682.234H599.693V702.714H586.033V648.084H599.693V668.574H627.003V648.084H640.653V702.714ZM702.733 702.714H689.073V696.884C682.043 701.604 675.213 703.964 668.583 703.964C654.923 703.964 648.103 697.134 648.103 683.474V648.084H661.763V683.474C661.763 687.944 664.033 690.224 668.593 690.304C677.703 689.144 684.523 684.804 689.083 677.274V648.084H702.743V702.714H702.733Z" fill="white"/>
<path fill-rule="evenodd" clip-rule="evenodd" d="M152.38 384.114C93.8598 422.574 33.9898 344.764 2.08984 309.914C35.3798 314.284 68.0298 322.154 96.5898 335.774C120.65 347.234 147.05 368.124 152.38 384.114Z" fill="white"/>
<path fill-rule="evenodd" clip-rule="evenodd" d="M201.63 468.874C172.61 510.404 107.34 470.684 74.5703 454.164C99.0603 448.954 124.15 446.374 148.15 448.814C168.36 450.874 193.08 458.974 201.63 468.874Z" fill="white"/>
<path fill-rule="evenodd" clip-rule="evenodd" d="M600.75 410.004C608.81 383.584 656.55 359.184 691.51 353.584C684.75 369.094 669.21 388.164 659.22 396.904C646.21 408.274 626.48 416.164 600.75 410.004Z" fill="white"/>
<path fill-rule="evenodd" clip-rule="evenodd" d="M540.523 467.634C570.313 501.224 622.843 461.314 649.593 444.234C627.703 441.764 605.563 441.624 584.923 445.754C567.543 449.244 546.893 458.334 540.523 467.634Z" fill="white"/>
<path fill-rule="evenodd" clip-rule="evenodd" d="M293.162 96.8937C304.802 79.7537 293.572 29.3437 268.242 4.75366C260.262 23.2837 246.692 78.6637 293.162 96.8937Z" fill="white"/>
</svg>
